PathFileType	4	(X/Y/Z)	D:\TRACE\v60_Jaco2_6-2-23\BothDRS_Motion1_7-platform.trc
DataRate	CameraRate	NumFrames	NumMarkers	Units	OrigDataRate	OrigDataStartFrame	OrigNumFrames
100.00	100.00	      30	5	mm	100.00	5626	      7500
Frame#	Time	Left_Front			Right_Front			Left_Aft			Right_Aft			Post			
		X1	Y1	Z1	X2	Y2	Z2	X3	Y3	Z3	X4	Y4	Z4	X5	Y5	Z5	

5626	56.250	-754.26331	-6.92576	-642.60614	815.97034	-4.63668	-647.81024	-662.53253	17.97387	492.15961	779.84436	18.02688	501.23886	31.66979	1285.23718	-995.90247	
5627	56.260	-754.64886	-6.63769	-642.68683	815.49384	-4.39432	-647.79926	-663.03967	17.78750	492.30951	779.61591	17.81162	501.31680	31.22274	1285.63708	-995.34192	
5628	56.270	-754.98224	-6.31345	-642.70886	815.00720	-4.25687	-647.77991	-663.15643	17.33220	492.39041	779.18115	17.52151	501.45270	31.18234	1285.98682	-994.91125	
5629	56.280	-755.32898	-5.87454	-642.60504	814.62097	-4.04089	-647.77020	-663.50165	17.21507	492.32980	778.61664	17.24650	501.44373	30.83548	1286.52686	-994.17889	
5630	56.290	-755.67975	-5.44192	-642.49072	814.16937	-3.45388	-647.68585	-663.85687	16.99117	492.38766	776.93225	16.34608	502.02380	30.01244	1286.96240	-993.56519	
5631	56.300	-756.08087	-5.16236	-642.47363	813.97742	-3.07109	-647.53943	-664.32678	16.75108	492.52216	776.93976	16.50482	502.29526	29.57251	1287.39819	-992.89520	
5632	56.310	-756.74530	-4.75422	-642.31219	813.53345	-2.79905	-647.53503	-664.69263	16.49921	492.61508	776.92621	16.23025	502.78461	29.11204	1287.93665	-991.71155	
5633	56.320	-757.31787	-4.43605	-642.15125	813.08099	-2.52227	-647.53864	-665.37823	16.33381	492.67706	776.71228	16.28125	502.83292	28.64442	1288.54980	-990.99365	
5634	56.330	-757.60309	-4.20840	-642.10522	812.29755	-2.00376	-647.48236	-665.82813	15.94113	492.75479	776.37555	16.04756	502.71957	28.08839	1288.96350	-989.99390	
5635	56.340	-758.24884	-3.78404	-642.07544	811.87933	-1.80160	-647.32703	-666.13794	15.76968	492.98306	775.70575	15.81214	502.72696	27.84537	1289.50867	-988.94080	
5636	56.350	-758.61145	-3.46264	-642.01245	811.23138	-1.56674	-647.15631	-666.56458	15.44927	493.04547	774.93890	15.53728	502.95709	27.06660	1290.21875	-987.91052	
5637	56.360	-758.95874	-3.20084	-641.87335	810.79889	-1.37436	-647.06494	-667.07062	15.17264	493.05316	774.53485	15.18812	502.94818	26.55568	1290.70520	-987.19019	
5638	56.370	-759.66089	-2.95452	-641.74158	810.33014	-0.85157	-647.05518	-667.44647	14.82304	493.10324	774.26379	15.03838	502.97052	26.41733	1291.16431	-986.45825	
5639	56.380	-760.44427	-2.58186	-641.73975	809.82367	-0.50418	-646.98633	-667.94464	14.49491	493.22955	774.20892	15.12574	503.06464	26.18579	1291.42627	-985.72528	
5640	56.390	-760.88745	-2.31141	-641.64246	809.50732	-0.34134	-646.93280	-668.01324	13.82031	493.39441	773.54449	14.87313	502.90955	24.96663	1291.93359	-985.05872	
5641	56.400	-761.25031	-1.95706	-641.62225	808.83868	-0.05224	-646.83179	-668.33441	13.13161	493.77365	772.66162	14.54327	503.19751	24.62478	1292.49292	-984.72607	
5642	56.410	-761.82422	-1.49838	-641.62683	807.92041	0.35194	-646.71735	-669.91327	14.11607	493.35358	772.20587	14.36143	503.30154	24.12676	1292.94397	-984.46179	
5643	56.420	-762.54382	-1.18367	-641.54175	807.35785	0.79500	-646.47839	-670.52722	14.00056	493.52118	771.71204	14.09832	503.30945	23.30656	1293.48755	-983.87866	
5644	56.430	-763.26752	-0.76215	-641.45245	807.01434	1.11353	-646.46161	-671.16498	13.76161	493.59088	771.54498	14.00364	503.35895	22.90218	1293.90125	-983.50519	
5645	56.440	-763.79022	-0.37276	-641.40594	806.51794	1.48871	-646.44641	-671.70135	13.45341	493.68820	770.53754	13.65765	503.26062	22.23171	1294.51245	-982.86035	
5646	56.450	-764.25549	-0.20529	-641.40302	805.71655	1.89002	-646.29523	-672.27039	13.21404	493.82144	769.97430	13.36302	503.39148	21.71334	1295.05371	-981.88605	
5647	56.460	-764.99207	0.16474	-641.18463	805.09991	2.21398	-646.15143	-673.05817	13.02158	493.84390	769.32593	13.10146	503.73483	21.10192	1295.52722	-981.13446	
5648	56.470	-765.44928	0.63578	-641.22278	804.42358	2.59316	-646.02563	-673.64014	12.76743	493.89929	768.48450	12.70364	503.69727	20.58823	1295.93091	-980.40997	
5649	56.480	-766.42804	1.00585	-640.99036	803.88159	2.80337	-646.05719	-674.20782	12.49997	493.82047	767.98865	12.63173	503.68573	19.35205	1296.70740	-979.46063	
5650	56.490	-767.09015	1.33678	-640.91809	803.11829	3.33003	-645.93768	-674.96814	12.33377	493.93680	767.47546	12.53077	503.84494	19.03207	1297.26526	-978.46283	
5651	56.500	-767.52240	1.73475	-640.82813	802.42291	3.69467	-645.77484	-675.83655	12.22244	494.03580	766.26062	12.04927	503.95807	18.26115	1297.74792	-977.42700	
5652	56.510	-768.26532	1.96508	-640.82336	801.63702	3.79734	-645.79791	-676.47083	11.75365	494.19540	765.49780	11.74328	504.18246	17.75750	1298.13806	-976.10266	
5653	56.520	-769.08875	2.48789	-640.57294	800.90936	4.20436	-645.64807	-677.24371	11.62017	494.43961	765.02869	11.43743	504.21585	16.88395	1298.94043	-975.03741	
5654	56.530	-769.77600	3.01221	-640.41357	800.25757	4.70352	-645.44312	-677.75714	11.40066	494.48596	763.80695	11.10595	504.36832	16.06032	1299.57300	-974.24463	
5655	56.540	-770.52875	3.47106	-640.53943	799.57037	5.08913	-645.44916	-678.56018	11.23101	494.64331	763.33929	10.87961	504.34128	15.73978	1299.98120	-973.71515	
